<?xml version="1.0" encoding="UTF-8"?>
<svg id="Layer_2" data-name="Layer 2" xmlns="http://www.w3.org/2000/svg" viewBox="0 0 312.63 608.98">
  <defs>
    <style>
      .cls-1 {
        fill: #c94300;
      }

      .cls-2 {
        fill: #f45700;
      }

      .cls-3 {
        fill: #822800;
      }
    </style>
  </defs>
  <g id="Layer_1-2" data-name="Layer 1">
    <g>
      <path class="cls-3" d="M312.63,370.39v129.74c0,15.72-8.37,30.23-21.96,38.08l-112.39,64.88c-13.58,7.85-30.35,7.85-43.94,0l-112.37-64.88c-13.61-7.85-21.98-22.36-21.98-38.08v-129.74c0-15.72,8.37-30.21,21.98-38.08l1.01-.58c4.63,8.01,11.33,14.85,19.58,19.6l86.98,50.22c8.25,4.78,17.52,7.15,26.78,7.15s18.5-2.38,26.75-7.15l86.98-50.22c8.28-4.78,14.97-11.61,19.58-19.63l1.03.6c13.58,7.87,21.96,22.36,21.96,38.08Z"/>
      <path class="cls-1" d="M277.65,204.53v100.44c0,6.12-1.66,12-4.61,17.16-2.95,5.13-7.27,9.53-12.57,12.6l-86.98,50.2c-10.58,6.12-23.76,6.12-34.34,0l-86.98-50.2c-5.3-3.07-9.6-7.44-12.57-12.57v-.02c-2.98-5.16-4.61-11.04-4.61-17.16v-100.44c0-12.24,6.57-23.64,17.18-29.75l3.38-1.97c3.94,4.63,8.64,8.61,14.04,11.73l59.96,34.63c8.25,4.75,17.52,7.15,26.78,7.15s18.5-2.4,26.75-7.15l59.96-34.63c5.4-3.12,10.1-7.1,14.04-11.73l3.38,1.97c10.61,6.12,17.18,17.52,17.18,29.75Z"/>
      <path class="cls-2" d="M250.63,68.96v69.2c0,2.78-.34,5.54-1.01,8.18-.77,3.17-1.99,6.19-3.62,9-1.61,2.81-3.62,5.37-5.97,7.63-1.94,1.92-4.15,3.58-6.57,4.97l-59.96,34.6c-10.58,6.12-23.76,6.12-34.34,0l-59.96-34.6c-2.4-1.39-4.61-3.05-6.57-4.97-2.35-2.26-4.37-4.82-5.97-7.63-1.63-2.81-2.86-5.83-3.62-9-.67-2.64-1.01-5.4-1.01-8.18v-69.2c0-12.24,6.6-23.64,17.18-29.75L139.15,4.58c5.28-3.05,11.23-4.58,17.18-4.58s11.88,1.54,17.16,4.58l59.96,34.63c10.58,6.12,17.18,17.52,17.18,29.75Z"/>
    </g>
  </g>
</svg>
