<svg xmlns="http://www.w3.org/2000/svg" viewBox="0 0 240 56" fill="none" role="img" aria-label="Blinkive logo">
  <g transform="translate(0 2) scale(0.26)">
    <path
      d="M48 188C71.2 188 88 171.2 88 148V118C88 108.5 84.5 99.8 78.5 93.5L48 68L17.5 93.5C11.5 99.8 8 108.5 8 118V148C8 171.2 24.8 188 48 188Z"
      fill="#5C1A06"
      stroke="#000"
      stroke-width="6"
      stroke-linejoin="round"
    />
    <path
      d="M48 118C65.7 118 80 103.7 80 86V62C80 54.2 76.8 46.9 71.5 41.8L48 22L24.5 41.8C19.2 46.9 16 54.2 16 62V86C16 103.7 30.3 118 48 118Z"
      fill="#B8460C"
      stroke="#000"
      stroke-width="6"
      stroke-linejoin="round"
    />
    <path
      d="M48 58C58.5 58 67 49.5 67 39V22C67 16.5 64.5 11.5 60.5 8.2L48 2L35.5 8.2C31.5 11.5 29 16.5 29 22V39C29 49.5 37.5 58 48 58Z"
      fill="#F57600"
      stroke="#000"
      stroke-width="6"
      stroke-linejoin="round"
    />
  </g>
  <text
    x="58"
    y="38"
    font-family="Inter, system-ui, sans-serif"
    font-size="28"
    font-weight="700"
    letter-spacing="-0.02em"
    fill="#1f1f1f"
  >
    blinkive
  </text>
</svg>
